<svg width="400" height="400" viewBox="0 0 400 400" fill="none" xmlns="http://www.w3.org/2000/svg">
  <path
    d="M190.857 65.6368C194.371 57.7043 205.628 57.7043 209.143 65.6368L283.291 233C309.976 293.232 265.879 361 200 361C134.121 361 90.0238 293.232 116.709 233L190.857 65.6368Z"
    fill="#FF693F" />
  <path fill-rule="evenodd" clip-rule="evenodd"
    d="M340 59.2907C340 40.2476 315.904 31.9802 304.213 47.0119L175.442 212.574C161.411 230.614 155.409 251.115 155.931 271H152V361H248C248.012 361 248.023 361 248.035 361C298.826 361 340 319.826 340 269.035V59.2907Z"
    fill="#A31C13" />
  <path
    d="M60 59.2907C60 40.2476 84.0957 31.9802 95.787 47.0119L224.558 212.574C271.542 272.982 228.493 361 151.965 361C101.174 361 60 319.826 60 269.035V59.2907Z"
    fill="#E04424" />
</svg>